<?xml version="1.0" standalone="no"?>
<!DOCTYPE svg PUBLIC "-//W3C//DTD SVG 20010904//EN"
 "http://www.w3.org/TR/2001/REC-SVG-20010904/DTD/svg10.dtd">
<svg version="1.0" xmlns="http://www.w3.org/2000/svg"
 width="7087.000000pt" height="6572.000000pt" viewBox="0 0 7087.000000 6572.000000"
 preserveAspectRatio="xMidYMid meet">

<g transform="translate(0.000000,6572.000000) scale(0.100000,-0.100000)"
fill="#000000" stroke="none">
<path d="M40890 65606 c-175 -24 -324 -53 -524 -100 -495 -117 -588 -146 -960
-301 -1140 -475 -2001 -913 -2716 -1383 -328 -215 -471 -322 -935 -703 -165
-135 -352 -285 -415 -334 -63 -49 -173 -148 -245 -220 -71 -72 -168 -162 -215
-199 -79 -63 -585 -548 -654 -626 -17 -19 -114 -120 -217 -225 -102 -104 -226
-239 -274 -300 -244 -303 -500 -537 -823 -752 -349 -232 -674 -349 -1227 -443
-99 -16 -331 -55 -515 -85 -184 -30 -405 -71 -490 -90 -85 -19 -194 -40 -243
-45 -48 -6 -147 -23 -220 -40 -72 -16 -231 -48 -352 -70 -121 -23 -266 -52
-322 -65 -56 -14 -157 -34 -225 -45 -68 -11 -159 -29 -203 -40 -44 -11 -188
-40 -320 -65 -132 -25 -350 -75 -485 -110 -135 -36 -445 -112 -690 -170 -441
-104 -709 -174 -917 -239 -60 -19 -133 -37 -163 -41 -30 -4 -104 -22 -165 -40
-60 -18 -218 -63 -350 -100 -330 -92 -449 -132 -740 -247 -137 -55 -443 -173
-680 -263 -958 -363 -1102 -424 -1885 -787 -195 -91 -441 -205 -546 -252 -105
-48 -272 -130 -370 -183 -99 -52 -268 -135 -376 -184 -458 -206 -904 -429
-1282 -641 -609 -342 -1816 -1134 -2686 -1761 -381 -276 -517 -385 -910 -732
-412 -364 -508 -445 -702 -596 -115 -89 -354 -308 -648 -594 -107 -104 -237
-225 -288 -268 -51 -43 -130 -122 -175 -175 -45 -54 -161 -178 -258 -277 -96
-99 -220 -234 -274 -300 -55 -66 -172 -201 -260 -299 -228 -256 -307 -346
-393 -455 -42 -53 -122 -145 -177 -206 -55 -60 -148 -171 -205 -245 -58 -74
-168 -211 -244 -305 -473 -575 -539 -663 -1053 -1395 -762 -1088 -1256 -1834
-1565 -2365 -299 -514 -839 -1551 -1096 -2105 -287 -620 -645 -1462 -836
-1968 -118 -311 -162 -411 -238 -538 -111 -187 -233 -305 -403 -389 -150 -75
-244 -98 -338 -84 -40 6 -99 14 -132 19 -71 9 -118 27 -182 72 -104 71 -187
182 -229 308 -30 88 -26 252 10 354 62 181 142 313 514 858 160 233 224 363
297 603 51 168 155 647 155 713 0 31 7 136 15 232 12 137 13 201 5 295 -6 66
-14 185 -19 265 -9 154 -66 511 -106 664 -13 50 -40 154 -60 231 -56 216 -184
500 -338 747 -150 241 -377 504 -587 680 -270 227 -696 455 -1040 557 -312 93
-719 143 -990 121 -85 -7 -202 -26 -315 -51 -381 -85 -442 -105 -691 -224
-380 -182 -696 -406 -999 -710 -403 -402 -721 -905 -949 -1496 -116 -302 -170
-596 -183 -994 -13 -396 36 -717 158 -1043 166 -442 351 -760 866 -1484 250
-352 468 -602 658 -755 174 -140 602 -415 735 -474 47 -20 173 -79 280 -131
107 -52 299 -141 425 -198 127 -56 374 -172 550 -258 591 -286 769 -369 1035
-482 466 -198 644 -297 798 -444 134 -128 239 -304 282 -471 59 -232 49 -565
-30 -955 -16 -80 -39 -218 -50 -307 -11 -90 -22 -168 -25 -175 -7 -20 -155
-1199 -166 -1323 -6 -60 -16 -159 -24 -220 -8 -60 -17 -173 -21 -250 -3 -77
-10 -187 -14 -245 -4 -58 -13 -204 -19 -325 -6 -121 -16 -269 -22 -330 -16
-177 -30 -708 -35 -1305 -3 -474 -1 -570 12 -660 12 -75 15 -141 11 -230 -11
-250 9 -858 47 -1395 35 -509 145 -1592 181 -1780 8 -44 24 -172 35 -285 22
-219 28 -259 65 -445 13 -66 35 -208 50 -315 14 -107 37 -244 51 -305 54 -236
65 -290 124 -605 77 -412 85 -441 285 -1175 167 -614 240 -866 320 -1115 24
-74 64 -207 90 -295 25 -88 86 -261 135 -385 48 -124 126 -326 173 -450 169
-448 286 -728 460 -1095 113 -240 540 -1092 579 -1158 40 -65 326 -620 470
-911 60 -120 144 -278 188 -351 43 -73 181 -317 306 -541 330 -596 419 -743
824 -1364 507 -779 942 -1392 1394 -1965 401 -509 582 -798 720 -1148 100
-254 128 -387 146 -707 6 -96 17 -222 25 -280 8 -58 19 -202 25 -320 24 -493
31 -610 40 -709 6 -58 10 -145 10 -195 0 -50 22 -391 50 -756 41 -544 66 -809
140 -1455 50 -434 97 -835 105 -890 7 -55 16 -156 20 -225 4 -69 15 -175 25
-237 11 -61 24 -207 30 -323 6 -117 13 -216 16 -221 2 -5 9 -75 15 -156 5 -81
14 -172 19 -201 5 -29 14 -123 20 -210 18 -270 31 -415 40 -462 5 -25 14 -112
19 -195 6 -82 19 -206 30 -275 11 -69 32 -257 46 -417 14 -161 32 -332 41
-380 13 -79 68 -317 200 -863 97 -403 182 -675 297 -950 560 -1337 1344 -2320
2363 -2961 199 -125 487 -262 892 -424 171 -68 262 -91 804 -205 160 -34 329
-43 677 -37 537 9 917 63 1355 193 263 77 449 154 921 379 456 217 645 293
924 371 139 38 212 42 419 24 214 -19 337 -55 677 -195 398 -164 731 -266
1085 -330 189 -35 268 -45 350 -45 58 0 141 -6 185 -14 191 -33 484 -28 730
14 61 10 144 22 185 26 108 10 522 106 685 159 169 55 562 239 791 370 148 85
368 234 460 312 278 234 335 284 384 337 30 32 88 93 129 135 110 112 456 564
584 761 148 230 328 586 502 994 118 277 159 389 246 681 152 507 231 711 344
886 142 221 384 371 740 460 108 27 360 37 488 19 50 -8 153 -14 227 -15 74
-1 297 -9 495 -19 469 -21 1552 -38 1637 -25 35 6 302 12 593 15 292 2 554 9
584 14 30 6 107 10 170 10 64 0 143 5 176 10 33 6 209 15 390 20 182 5 348 13
369 19 22 5 141 13 265 16 124 4 264 13 311 20 248 41 650 45 844 10 169 -30
332 -100 504 -215 154 -103 225 -185 316 -367 74 -148 198 -483 416 -1128 200
-592 297 -836 454 -1140 166 -322 361 -618 591 -897 146 -177 494 -524 680
-679 374 -310 824 -613 1148 -773 235 -115 830 -338 1014 -380 102 -23 464
-86 553 -97 137 -16 503 -34 675 -33 119 1 207 8 295 22 69 11 175 23 235 27
81 5 185 24 395 71 558 126 620 148 1570 549 217 92 430 180 474 196 176 66
428 119 564 119 73 0 455 -69 558 -101 38 -12 216 -74 396 -140 179 -65 366
-129 415 -143 133 -38 576 -124 678 -131 50 -4 133 -14 185 -23 132 -22 553
-21 740 2 152 18 868 162 1005 201 421 120 1084 472 1550 823 257 194 599 573
830 922 326 492 584 1093 734 1715 34 138 84 341 111 453 54 218 223 1205 235
1367 3 50 10 117 16 150 5 33 18 177 30 320 11 143 24 298 29 345 5 47 9 128
9 180 1 52 8 133 16 180 8 47 15 126 15 175 0 50 11 155 24 235 13 80 29 222
36 315 20 310 31 426 45 504 7 42 19 144 25 226 6 83 20 200 30 260 26 149 36
236 60 535 21 258 38 395 65 528 9 39 18 120 20 180 3 59 10 148 16 197 5 50
21 268 35 485 13 217 29 418 35 445 5 28 13 221 18 430 5 209 14 398 19 420 5
22 12 146 16 275 8 311 46 675 87 830 106 402 184 593 332 815 124 185 386
524 491 635 45 47 130 148 191 225 114 145 203 251 564 665 297 341 432 512
787 995 866 1181 1126 1567 1712 2540 930 1545 1069 1816 1696 3322 206 494
217 523 386 1013 48 140 113 323 145 405 31 83 70 193 87 245 16 52 62 196
103 320 40 124 112 358 160 520 47 162 104 352 126 422 21 69 52 189 68 265
16 76 52 217 80 313 28 96 87 335 132 530 108 478 161 682 268 1025 143 462
185 567 291 730 215 329 468 500 1164 790 349 145 503 215 681 312 338 183
725 436 995 651 119 95 552 521 718 707 652 730 1159 1624 1502 2645 140 416
294 1187 341 1700 6 69 15 157 20 195 11 99 11 586 -1 875 -22 523 -80 969
-179 1368 -16 65 -39 173 -51 242 -26 144 -160 647 -225 844 -152 459 -496
1125 -876 1696 -176 263 -227 330 -399 525 -78 88 -193 224 -256 302 -193 240
-422 466 -675 668 -68 54 -155 128 -194 165 -77 73 -239 192 -475 351 -592
396 -1007 572 -1915 809 -234 61 -288 71 -410 81 -77 5 -180 16 -230 24 -49 7
-124 16 -165 19 -78 6 -470 80 -610 116 -313 80 -523 228 -743 524 -136 182
-172 247 -457 816 -150 300 -314 615 -365 700 -50 85 -161 277 -245 425 -435
766 -594 1031 -800 1330 -126 183 -981 1392 -1199 1694 -261 364 -389 600
-484 896 -60 188 -71 264 -71 500 -1 221 11 345 49 560 25 135 35 219 60 465
8 80 19 169 25 198 17 93 29 219 45 477 15 236 39 457 52 479 4 5 10 82 14
170 11 225 26 502 40 698 7 91 9 206 5 255 -5 61 -2 120 8 192 24 161 21 621
-9 1195 -14 265 -29 513 -35 551 -6 39 -15 185 -20 325 -5 140 -14 274 -19
296 -6 23 -15 104 -20 180 -9 138 -158 1326 -186 1479 -8 44 -24 152 -35 241
-11 88 -38 239 -59 335 -22 96 -56 262 -76 369 -97 527 -138 700 -222 950
-278 829 -665 1660 -1161 2498 -71 120 -163 285 -205 367 -163 321 -476 788
-710 1061 -395 458 -907 761 -1422 841 -152 23 -517 23 -715 -1 -376 -44 -739
-127 -1040 -236 -63 -23 -197 -71 -298 -106 -438 -155 -955 -419 -1767 -904
-181 -108 -438 -261 -570 -340 -465 -277 -619 -387 -1100 -785 -93 -78 -224
-184 -290 -237 -66 -53 -151 -128 -190 -168 -38 -40 -112 -105 -163 -146 -111
-90 -220 -185 -458 -403 -458 -418 -717 -577 -1001 -611 -210 -26 -394 41
-597 217 -178 153 -364 412 -641 888 -183 314 -290 484 -500 795 -340 504
-583 836 -709 968 -56 59 -131 143 -166 187 -82 102 -213 233 -315 315 -44 35
-116 98 -160 139 -129 123 -320 248 -556 367 -411 205 -813 299 -1329 309
-202 4 -230 2 -460 -29z m650 -1521 c176 -35 447 -155 648 -288 297 -197 543
-438 870 -852 61 -77 173 -212 248 -300 171 -200 263 -324 441 -590 321 -482
600 -972 825 -1450 242 -513 340 -790 572 -1626 100 -362 121 -450 161 -685
24 -148 61 -341 80 -429 19 -88 53 -275 75 -415 134 -829 135 -835 247 -1260
112 -427 170 -578 272 -713 65 -85 133 -139 239 -190 141 -68 251 -62 391 20
144 85 212 169 351 433 154 291 199 348 363 454 295 193 640 143 1312 -189
127 -63 307 -160 400 -216 94 -56 286 -162 428 -236 431 -224 1412 -829 2157
-1331 562 -378 720 -495 1170 -866 107 -89 258 -210 335 -270 203 -159 262
-212 543 -482 139 -134 304 -287 366 -338 62 -52 155 -140 207 -196 52 -56
141 -141 199 -190 114 -95 223 -205 312 -315 31 -39 100 -111 153 -159 53 -49
128 -127 167 -174 40 -47 144 -162 232 -256 89 -94 193 -209 233 -256 39 -47
101 -114 138 -150 37 -36 94 -99 128 -140 73 -90 179 -210 342 -385 173 -186
259 -285 355 -410 46 -60 157 -200 245 -310 212 -263 241 -302 517 -695 437
-623 885 -1286 1240 -1835 289 -446 371 -586 603 -1020 65 -121 145 -267 178
-324 33 -57 77 -143 98 -190 20 -48 51 -111 69 -141 100 -170 196 -395 274
-640 59 -186 76 -270 83 -400 4 -95 2 -116 -26 -224 -54 -203 -138 -382 -259
-546 -111 -149 -340 -418 -483 -565 -80 -82 -167 -177 -195 -210 -27 -33 -107
-122 -178 -199 -161 -175 -476 -592 -703 -931 -304 -455 -566 -980 -770 -1540
-89 -246 -140 -428 -223 -801 -39 -176 -79 -353 -90 -394 -34 -137 -49 -235
-70 -471 -11 -129 -28 -274 -37 -324 -46 -267 -46 -1083 1 -1399 9 -55 22
-186 31 -291 8 -104 22 -226 30 -270 8 -44 21 -136 30 -205 17 -130 119 -655
160 -821 51 -201 240 -750 380 -1104 212 -535 443 -984 703 -1365 110 -163
178 -249 353 -450 214 -245 240 -276 316 -380 135 -184 211 -330 239 -459 29
-140 10 -331 -45 -438 -73 -144 -256 -275 -474 -337 -185 -54 -250 -61 -562
-61 -316 0 -429 10 -729 66 -294 55 -485 110 -941 272 -327 115 -402 145 -610
246 -525 254 -955 560 -1365 971 -206 206 -353 378 -512 600 -186 260 -300
470 -433 795 -173 425 -225 544 -296 685 -92 183 -184 327 -252 392 -62 62
-161 120 -262 154 -103 36 -267 40 -355 10 -109 -36 -196 -101 -280 -205 -103
-128 -152 -274 -172 -508 -21 -244 9 -421 142 -823 139 -418 284 -729 518
-1110 219 -356 407 -624 502 -715 28 -27 94 -102 145 -165 108 -134 267 -296
392 -400 48 -41 122 -106 163 -145 86 -82 364 -299 555 -433 566 -397 1292
-760 1999 -1001 223 -76 257 -85 651 -165 434 -88 573 -101 1023 -93 272 5
361 10 462 26 69 12 179 28 245 36 66 9 136 20 155 25 19 5 123 28 230 50 428
89 560 135 1195 417 508 226 631 269 800 280 255 16 458 -135 549 -410 74
-221 0 -774 -194 -1467 -27 -96 -74 -283 -105 -415 -70 -302 -96 -397 -200
-725 -46 -146 -129 -411 -185 -590 -241 -778 -358 -1104 -665 -1860 -259 -639
-348 -844 -450 -1045 -257 -503 -316 -620 -369 -737 -32 -69 -99 -198 -150
-285 -51 -87 -155 -275 -231 -418 -76 -143 -175 -323 -220 -400 -88 -151 -529
-857 -733 -1175 -730 -1137 -1535 -2223 -2364 -3190 -599 -698 -1065 -1187
-2335 -2450 -768 -763 -905 -895 -1044 -1008 -47 -38 -146 -120 -220 -182
-349 -295 -604 -449 -864 -525 -217 -62 -525 -50 -880 35 -152 37 -263 50
-335 40 -134 -19 -313 -76 -445 -143 -85 -43 -115 -66 -196 -147 -138 -137
-268 -343 -328 -520 -29 -83 -162 -612 -190 -750 -26 -132 -42 -242 -81 -550
-46 -374 -68 -520 -106 -705 -22 -107 -40 -239 -50 -355 -8 -102 -26 -239 -39
-305 -13 -66 -33 -192 -45 -280 -12 -88 -51 -304 -86 -480 -302 -1487 -422
-2092 -454 -2280 -27 -162 -56 -286 -109 -470 -205 -711 -360 -1072 -620
-1445 -411 -590 -927 -987 -1651 -1272 -422 -166 -661 -211 -1125 -211 -292 0
-473 14 -733 58 -204 35 -307 61 -607 155 -381 119 -475 159 -669 282 -910
577 -1522 1407 -1936 2626 -69 200 -130 434 -250 952 -138 595 -245 897 -406
1143 -77 117 -207 252 -304 315 -183 118 -440 169 -805 159 -268 -7 -437 -31
-800 -111 -38 -9 -160 -25 -270 -36 -110 -11 -272 -34 -360 -50 -88 -17 -245
-39 -350 -50 -104 -10 -237 -28 -295 -39 -57 -12 -174 -25 -260 -31 -147 -10
-208 -17 -360 -40 -36 -5 -130 -12 -210 -16 -80 -3 -190 -12 -245 -19 -119
-16 -1377 -20 -1485 -4 -36 5 -146 13 -245 18 -99 5 -232 14 -295 20 -63 6
-182 16 -265 21 -82 6 -197 16 -255 21 -58 5 -163 14 -233 19 -71 5 -132 12
-136 14 -4 3 -108 10 -231 16 -124 6 -252 15 -285 21 -33 5 -175 18 -315 29
-475 37 -595 49 -665 63 -101 22 -277 43 -537 67 -125 12 -278 30 -340 40 -62
11 -243 35 -403 55 -159 19 -295 37 -302 39 -6 3 -96 14 -200 26 -103 12 -224
30 -268 40 -136 32 -356 68 -703 115 -380 52 -558 86 -787 149 -88 25 -381
104 -650 176 -736 197 -947 257 -1320 375 -220 70 -632 175 -687 175 -24 0
-81 7 -128 15 -137 24 -226 20 -381 -19 -149 -38 -267 -81 -345 -125 -235
-135 -405 -486 -509 -1046 -14 -77 -50 -313 -81 -525 -60 -426 -93 -624 -129
-777 -14 -56 -34 -157 -45 -225 -11 -68 -41 -202 -65 -298 -24 -96 -71 -294
-106 -440 -103 -444 -166 -649 -286 -930 -350 -822 -760 -1385 -1293 -1771
-204 -149 -438 -275 -720 -389 -367 -148 -495 -185 -720 -206 -90 -8 -202 -21
-249 -29 -53 -10 -151 -15 -268 -15 -184 0 -187 0 -463 55 -334 66 -446 97
-610 166 -344 145 -688 349 -986 586 -149 119 -460 431 -580 583 -353 446
-611 964 -754 1515 -54 208 -89 395 -165 865 -68 420 -102 615 -136 760 -27
115 -204 1563 -229 1875 -12 137 -29 303 -40 370 -22 140 -36 307 -51 640 -10
226 -17 301 -53 570 -17 124 -33 315 -46 545 -5 85 -16 193 -24 239 -37 199
-43 511 -15 726 12 92 59 245 99 325 66 130 162 230 274 285 79 39 277 64 656
85 94 5 164 16 231 33 296 80 396 167 450 394 33 138 38 184 29 265 -21 187
-126 395 -321 638 -82 102 -674 715 -764 791 -27 23 -163 153 -300 288 -138
135 -305 293 -370 351 -66 58 -167 159 -225 225 -58 65 -171 187 -251 269 -80
83 -172 184 -204 225 -33 40 -136 160 -229 265 -221 250 -269 310 -553 696
-635 863 -943 1298 -1265 1785 -328 495 -469 733 -838 1410 -282 516 -379 690
-522 933 -67 113 -157 284 -203 385 -45 100 -148 315 -228 477 -153 311 -257
537 -457 996 -160 365 -211 491 -313 774 -47 129 -116 316 -155 415 -38 99
-86 239 -106 310 -80 274 -97 330 -204 665 -257 803 -312 983 -347 1130 -20
85 -70 288 -110 450 -76 308 -97 406 -165 780 -23 124 -61 308 -85 410 -53
223 -74 341 -120 678 -43 312 -60 418 -86 542 -20 99 -104 871 -120 1115 -9
134 -25 455 -49 945 -31 661 -41 1916 -20 2570 6 195 12 387 12 425 12 623 67
1287 182 2182 41 319 82 619 90 665 9 45 25 157 36 248 12 91 39 240 61 332
44 187 113 527 189 933 71 379 132 645 196 863 31 103 75 268 99 368 26 105
124 425 234 765 393 1205 507 1498 853 2194 90 182 199 409 243 505 99 221
192 409 260 525 29 50 83 157 119 238 36 82 97 201 135 265 38 65 148 259 244
433 202 363 250 444 510 849 545 847 1185 1784 1517 2220 102 135 238 317 300
405 375 526 816 1079 1277 1605 413 471 740 815 1380 1450 579 576 742 725
1068 980 66 52 166 135 222 185 87 79 427 333 916 684 424 304 1061 737 1421
966 283 179 447 275 771 450 171 92 359 196 418 231 60 34 161 85 225 113 65
27 169 79 232 116 170 98 395 209 665 329 132 59 400 185 595 281 372 182 514
244 1267 553 677 279 825 333 1781 643 337 109 637 199 845 254 177 46 369 98
427 115 58 18 148 40 201 50 53 10 141 32 195 49 54 17 245 67 424 111 179 43
397 100 485 125 88 25 318 77 510 116 467 95 482 98 545 99 30 0 91 7 135 15
172 32 286 46 435 52 138 5 167 3 259 -16 394 -85 570 -221 647 -501 16 -55
18 -94 14 -260 -10 -432 -7 -492 29 -629 44 -170 77 -238 153 -317 75 -78 147
-124 250 -158 153 -52 296 -42 445 28 100 48 154 86 257 186 153 148 275 327
457 672 282 534 289 547 535 918 365 552 1173 1656 1423 1944 80 93 180 210
221 260 41 50 156 175 255 277 99 103 230 238 290 300 61 63 155 150 210 193
55 44 147 125 205 180 211 202 377 354 460 421 47 38 173 143 280 234 436 369
1198 899 1755 1221 539 312 1021 518 1715 735 245 76 640 164 750 166 30 1 69
5 85 10 48 13 469 2 555 -16z m11835 -195 c142 -14 236 -33 361 -75 252 -83
451 -221 640 -439 123 -143 235 -310 430 -641 87 -148 198 -337 246 -420 122
-206 345 -655 458 -920 191 -449 417 -1089 489 -1385 22 -91 70 -327 106 -525
36 -198 79 -418 95 -490 16 -71 36 -191 45 -265 9 -74 20 -151 25 -170 16 -63
40 -250 65 -517 26 -275 44 -411 69 -528 9 -39 20 -142 26 -230 6 -88 19 -214
30 -280 10 -66 21 -174 25 -240 3 -66 15 -172 25 -235 11 -63 24 -203 30 -310
5 -108 14 -220 20 -249 5 -30 10 -83 10 -120 0 -36 5 -97 11 -136 29 -206 41
-1242 19 -1747 -19 -430 -73 -665 -196 -849 -126 -190 -345 -276 -563 -223
-227 56 -550 283 -1046 733 -282 257 -459 408 -634 538 -86 65 -365 276 -621
469 -1033 780 -1282 955 -2075 1456 -187 118 -522 336 -745 484 -602 401 -872
559 -1643 963 -310 162 -499 252 -832 396 -811 349 -1164 620 -1275 980 -44
143 -38 278 20 456 69 209 171 378 409 675 207 257 584 656 735 776 50 40 157
139 238 220 81 81 203 191 270 245 67 54 228 190 358 302 281 243 383 326 555
451 312 226 711 481 1340 855 193 114 427 254 520 310 94 57 216 124 273 149
57 26 176 83 264 127 265 133 583 269 753 322 130 40 410 92 520 96 22 0 90
-4 150 -9z m-48275 -17811 c36 -5 105 -23 153 -40 486 -162 838 -566 947
-1084 27 -130 37 -365 21 -505 -53 -461 -272 -933 -586 -1259 -148 -153 -438
-371 -593 -443 -87 -41 -150 -56 -339 -82 -111 -14 -115 -14 -220 10 -218 49
-336 101 -471 210 -267 213 -471 565 -618 1064 -105 354 -77 794 76 1185 126
321 452 665 771 814 100 47 285 106 389 125 91 16 381 20 470 5z m57717 -3359
c201 -12 297 -30 517 -95 695 -205 1293 -522 1836 -974 152 -126 460 -435 590
-591 292 -352 524 -708 735 -1130 117 -234 190 -400 248 -565 83 -237 219
-688 243 -805 12 -63 36 -167 53 -230 127 -477 192 -1070 192 -1740 0 -444
-21 -726 -76 -1048 -36 -207 -75 -352 -174 -652 -263 -789 -579 -1426 -963
-1938 -257 -341 -585 -663 -919 -902 -259 -186 -633 -383 -904 -477 -253 -87
-444 -135 -720 -179 -260 -41 -294 -44 -471 -44 -201 0 -344 11 -479 35 -45 8
-149 22 -232 30 -162 16 -292 49 -593 147 -291 95 -495 181 -694 293 -66 37
-154 84 -195 105 -189 95 -574 389 -722 552 -52 56 -126 134 -166 173 -159
157 -493 606 -638 859 -166 291 -492 1021 -595 1336 -59 177 -178 646 -194
762 -8 56 -22 132 -30 168 -8 36 -24 142 -36 235 -11 94 -27 211 -36 261 -8
49 -19 162 -24 250 -5 87 -15 229 -21 314 -10 129 -10 177 2 285 7 72 14 236
15 365 0 210 3 250 27 375 15 77 40 262 57 410 38 332 56 426 126 663 355
1205 775 1992 1394 2613 96 97 232 223 302 281 231 190 536 397 728 493 263
132 737 283 1040 330 280 45 479 53 777 35z m-9368 -30576 c204 -54 341 -248
371 -529 6 -55 15 -131 20 -170 10 -79 4 -422 -10 -560 -5 -49 -14 -173 -20
-275 -6 -102 -15 -216 -20 -255 -6 -38 -15 -140 -20 -225 -6 -85 -17 -211 -25
-280 -15 -121 -48 -559 -65 -865 -5 -82 -13 -171 -19 -197 -21 -92 -31 -238
-40 -568 -7 -237 -15 -377 -30 -480 -11 -80 -25 -208 -30 -285 -22 -292 -33
-393 -51 -475 -23 -107 -43 -247 -75 -525 -31 -272 -48 -374 -85 -537 -16 -70
-48 -214 -71 -320 -82 -388 -259 -835 -462 -1173 -109 -181 -279 -417 -362
-500 -85 -85 -287 -260 -395 -341 -36 -27 -110 -73 -165 -103 -55 -29 -155
-85 -221 -122 -645 -366 -1387 -492 -1893 -323 -285 96 -522 293 -632 527 -60
128 -73 202 -73 417 -1 164 3 213 22 310 29 145 69 298 131 498 75 239 184
679 236 947 25 132 57 283 70 335 13 52 33 165 45 250 11 85 36 220 55 300 42
183 73 355 130 740 61 411 79 514 126 725 22 99 51 261 65 359 14 99 27 183
30 187 2 5 16 86 29 182 14 95 38 229 54 298 16 68 45 201 66 294 104 484 189
677 414 940 138 162 314 306 701 575 129 90 399 283 600 430 508 370 649 469
892 623 127 81 298 152 402 168 39 6 78 15 86 20 19 12 146 2 219 -17z
m-27029 -4674 c113 -22 322 -60 465 -85 580 -103 862 -182 1118 -312 398 -203
575 -501 554 -933 -14 -284 -96 -587 -261 -974 -387 -904 -835 -1417 -1541
-1765 -201 -100 -315 -142 -533 -198 -177 -45 -280 -58 -532 -70 -101 -4 -141
0 -320 30 -218 38 -310 66 -471 147 -311 156 -486 352 -553 621 -48 189 -55
402 -20 629 13 86 197 752 309 1120 25 80 56 200 69 267 29 140 171 597 245
784 78 200 163 358 258 481 101 132 321 256 492 277 42 6 86 14 99 18 12 5
111 7 220 5 180 -3 215 -7 402 -42z"/>
<path d="M28995 54518 c-443 -13 -669 -25 -758 -41 -48 -9 -183 -26 -300 -37
-325 -33 -385 -43 -772 -141 -451 -113 -536 -138 -710 -204 -77 -29 -239 -90
-359 -135 -120 -45 -276 -110 -345 -144 -69 -35 -205 -98 -301 -141 -264 -117
-373 -174 -614 -323 -550 -340 -1017 -667 -1190 -832 -67 -64 -168 -154 -226
-200 -138 -110 -352 -321 -448 -440 -42 -52 -118 -138 -168 -190 -98 -102
-378 -446 -489 -600 -279 -386 -578 -884 -786 -1309 -244 -496 -345 -790 -484
-1401 -31 -135 -76 -330 -101 -435 -24 -104 -51 -239 -60 -300 -8 -60 -26
-162 -39 -225 -14 -63 -40 -197 -60 -297 -57 -297 -112 -434 -239 -604 -146
-193 -339 -332 -570 -409 -50 -16 -199 -55 -331 -86 -132 -31 -278 -70 -325
-86 -126 -43 -351 -158 -464 -235 -90 -62 -107 -79 -174 -173 -143 -203 -191
-338 -179 -500 8 -106 30 -180 87 -295 89 -180 181 -278 341 -364 190 -103
476 -184 716 -205 89 -8 168 -18 175 -22 6 -4 120 -11 252 -15 l241 -7 200
-51 c110 -27 360 -96 555 -152 l355 -103 170 0 c147 -1 180 2 248 22 159 46
256 110 322 212 113 173 158 370 158 685 0 203 -9 307 -48 530 -14 77 -29 187
-35 245 -5 58 -14 146 -21 195 -14 113 -6 1080 11 1239 6 59 20 158 30 220 11
61 33 206 49 321 54 382 246 1088 403 1480 74 185 226 491 343 690 134 230
363 568 467 691 52 61 132 160 178 220 286 370 618 709 978 998 700 561 1574
1001 2590 1306 187 56 219 63 393 85 68 8 185 27 259 40 74 14 230 32 345 40
116 8 235 19 265 24 119 21 1071 10 1108 -13 7 -4 90 -11 185 -16 161 -8 191
-13 482 -80 398 -90 540 -128 700 -185 72 -25 189 -64 260 -86 267 -82 833
-341 1105 -504 866 -522 1622 -1220 2176 -2010 172 -245 391 -600 483 -782
133 -266 288 -693 440 -1208 92 -312 104 -369 146 -641 19 -126 42 -263 50
-304 8 -41 17 -127 20 -190 3 -63 13 -176 22 -250 12 -106 14 -191 9 -400 -4
-146 -11 -305 -16 -355 -6 -49 -17 -148 -25 -220 -8 -71 -19 -184 -25 -250 -6
-66 -22 -174 -36 -240 -106 -508 -108 -949 -7 -1202 91 -227 335 -373 622
-373 157 0 238 22 700 184 345 122 547 164 931 195 141 12 296 21 346 21 151
0 475 45 613 85 259 75 426 160 527 267 102 108 193 271 219 393 64 301 -94
648 -382 837 -180 119 -344 182 -818 313 -302 84 -423 125 -554 186 -254 120
-426 285 -527 506 -76 167 -113 322 -194 813 -55 337 -73 418 -185 820 -233
837 -336 1115 -630 1700 -838 1664 -2102 2900 -3780 3697 -409 195 -704 300
-1320 472 -402 112 -772 189 -1035 215 -86 9 -192 22 -236 30 -190 34 -510 46
-909 34z"/>
<path d="M28720 51911 c-127 -32 -194 -105 -229 -247 -43 -174 -63 -349 -88
-755 l-17 -289 -38 -14 c-86 -35 -591 -357 -771 -493 -446 -335 -708 -678
-836 -1090 -67 -213 -94 -446 -72 -604 7 -46 35 -167 62 -269 57 -210 120
-351 240 -535 229 -352 365 -483 856 -828 127 -89 290 -213 361 -276 l129
-113 6 -277 c12 -473 9 -688 -7 -694 -8 -3 -61 -11 -118 -17 -108 -13 -189
-10 -498 16 -218 19 -444 14 -535 -11 -130 -36 -250 -121 -325 -230 -116 -169
-119 -413 -6 -649 133 -280 402 -503 863 -715 332 -153 591 -271 633 -287 25
-9 48 -20 52 -23 3 -3 14 -123 23 -266 19 -313 39 -506 66 -640 26 -132 36
-161 70 -216 38 -61 98 -100 182 -120 62 -15 72 -15 135 0 37 9 86 29 109 45
45 30 94 98 111 156 40 129 74 391 92 710 6 107 13 204 16 216 3 17 19 25 83
42 120 32 250 83 511 199 431 193 639 308 855 472 438 333 720 834 786 1394
20 168 8 356 -35 550 -46 209 -74 293 -142 430 -183 364 -444 636 -918 956
-72 48 -241 157 -376 241 -352 220 -566 366 -637 435 l-63 61 0 216 0 216 73
26 c97 35 391 105 677 160 258 50 381 83 478 127 292 132 409 405 299 697 -96
256 -325 473 -866 817 -100 64 -233 143 -297 175 -117 60 -291 123 -376 135
-57 9 -52 -9 -68 260 -18 316 -52 577 -92 705 -31 101 -112 177 -213 199 -33
8 -64 15 -70 16 -5 2 -39 -5 -75 -14z"/>
<path d="M49060 46095 c-19 -7 -80 -16 -135 -20 -230 -15 -646 -161 -942 -330
-694 -396 -1215 -1011 -1449 -1710 -44 -133 -121 -514 -133 -662 -5 -65 -15
-170 -22 -233 -15 -134 -2 -366 31 -567 27 -168 130 -577 175 -698 82 -221
256 -536 412 -746 303 -409 756 -794 1195 -1015 198 -100 515 -208 639 -219
41 -3 117 -14 169 -23 116 -20 381 -22 556 -5 137 14 544 100 675 143 287 94
678 309 969 534 139 107 453 422 564 566 199 257 403 600 494 828 201 503 227
1024 68 1368 -87 187 -191 278 -373 325 -90 23 -174 24 -263 4 -36 -8 -110
-19 -165 -25 -55 -6 -167 -20 -250 -31 -258 -36 -401 -16 -600 83 -208 105
-323 215 -415 401 -100 204 -143 422 -120 624 14 124 18 139 101 367 92 250
112 334 107 456 -3 83 -8 103 -38 163 -19 39 -60 96 -94 133 -115 122 -271
192 -592 268 -147 35 -156 36 -340 35 -126 -1 -201 -6 -224 -14z"/>
<path d="M19520 41355 c-47 -13 -93 -29 -102 -34 -10 -6 -23 -11 -28 -11 -11
0 -79 -28 -128 -53 -13 -6 -36 -25 -52 -41 -16 -17 -59 -62 -96 -101 -108
-113 -162 -203 -183 -305 -15 -69 -8 -13941 7 -14200 5 -102 15 -184 25 -215
9 -27 17 -79 17 -115 0 -36 7 -90 15 -120 8 -30 15 -84 15 -119 0 -36 9 -99
19 -140 30 -120 51 -224 51 -250 0 -14 9 -59 19 -100 11 -42 29 -122 41 -178
44 -203 169 -637 205 -706 13 -26 31 -82 40 -125 24 -119 35 -154 57 -185 11
-16 27 -54 35 -85 8 -31 23 -68 33 -82 10 -15 24 -49 31 -76 6 -27 23 -74 36
-104 38 -85 41 -93 49 -120 4 -14 16 -38 26 -53 11 -16 27 -54 35 -85 8 -31
28 -75 44 -96 16 -22 29 -45 29 -50 0 -11 10 -32 47 -96 11 -19 23 -48 27 -65
4 -16 19 -45 32 -63 14 -17 30 -47 36 -65 6 -17 26 -53 44 -80 27 -39 80 -141
145 -282 6 -11 25 -37 43 -59 19 -21 40 -50 47 -65 7 -14 28 -47 46 -72 18
-26 33 -50 33 -54 0 -4 20 -36 44 -70 24 -35 47 -74 51 -87 4 -12 22 -43 39
-68 18 -25 38 -57 46 -73 7 -15 32 -46 55 -70 39 -40 115 -141 115 -153 0 -8
58 -92 78 -112 10 -9 24 -29 31 -44 7 -14 35 -49 61 -77 27 -27 66 -76 88
-108 22 -32 57 -76 78 -98 22 -22 52 -57 67 -78 16 -20 38 -48 50 -61 12 -12
45 -50 74 -82 29 -32 78 -87 110 -120 90 -95 144 -156 188 -209 22 -26 51 -58
64 -69 13 -12 42 -37 64 -56 23 -19 72 -65 111 -102 39 -36 91 -83 115 -105
24 -21 69 -63 101 -93 31 -31 88 -80 126 -110 38 -29 96 -81 129 -113 33 -33
85 -76 115 -95 30 -20 64 -44 75 -55 11 -10 46 -37 77 -58 31 -21 74 -54 94
-73 21 -19 49 -41 63 -48 14 -7 28 -16 31 -19 14 -18 468 -328 495 -338 6 -2
30 -18 55 -35 25 -17 63 -40 85 -51 22 -10 51 -27 65 -36 30 -19 103 -60 187
-104 33 -18 76 -44 95 -58 18 -14 47 -29 63 -33 17 -4 48 -19 70 -34 22 -15
51 -31 65 -35 14 -4 43 -20 66 -36 22 -15 54 -31 70 -35 27 -7 87 -36 109 -54
6 -4 30 -13 55 -20 25 -6 61 -22 81 -35 20 -13 56 -29 79 -35 24 -7 57 -22 74
-35 17 -12 58 -30 91 -40 33 -9 74 -25 91 -35 17 -10 58 -25 90 -35 33 -9 74
-25 92 -36 18 -10 63 -26 100 -35 37 -9 81 -24 98 -34 17 -10 74 -30 125 -44
52 -15 102 -31 111 -36 9 -5 79 -25 155 -44 76 -19 174 -47 217 -61 44 -14
113 -30 153 -35 41 -5 89 -17 108 -25 52 -25 135 -45 190 -45 28 0 109 -16
180 -35 91 -24 153 -35 205 -35 41 -1 98 -5 125 -11 28 -5 100 -14 160 -19 61
-6 135 -18 166 -25 39 -10 110 -15 221 -15 94 0 178 -5 198 -11 75 -25 447
-31 1715 -31 1320 0 1840 9 1905 30 22 8 106 12 223 12 131 0 207 4 250 15 34
8 114 19 177 25 63 5 138 14 165 19 28 6 79 10 115 11 41 0 114 13 195 35 72
19 151 35 177 35 25 0 99 15 165 34 65 18 141 36 168 39 28 3 93 19 145 35 52
16 151 42 220 57 69 15 143 35 165 46 22 10 74 28 115 40 41 12 84 28 95 35
11 7 52 22 92 33 39 10 101 33 136 50 36 17 71 31 78 31 8 0 28 7 44 16 17 9
62 27 100 41 39 14 97 37 130 53 33 15 73 31 89 34 17 4 41 16 56 26 14 10 52
26 85 35 33 10 74 28 91 40 17 13 50 29 75 35 24 7 59 23 77 37 18 14 49 29
68 35 20 5 68 30 107 56 40 25 113 67 162 93 120 62 182 96 230 129 22 15 51
31 65 35 14 4 46 23 71 41 26 19 50 34 54 34 4 0 43 25 86 55 43 30 81 55 84
55 4 0 43 26 88 58 45 32 112 80 149 105 36 26 72 53 80 59 7 7 25 19 40 27
15 8 40 26 55 41 15 14 64 53 108 85 44 32 82 61 85 65 3 3 32 26 65 50 33 23
65 48 70 54 6 7 44 37 85 67 41 31 100 80 132 110 31 30 78 74 105 97 26 24
111 105 189 180 77 76 174 169 215 207 41 39 88 88 104 110 16 22 62 74 102
115 263 271 310 321 323 346 8 16 40 55 71 87 31 31 62 70 70 85 13 26 83 126
117 167 9 11 36 49 60 84 24 35 54 75 67 89 13 13 29 36 37 51 7 14 23 37 35
50 11 13 27 35 34 50 7 14 28 47 46 72 18 26 33 50 33 53 0 4 11 19 24 33 13
14 30 37 38 52 7 14 23 37 34 50 21 22 59 95 100 186 9 22 31 60 48 85 17 25
40 63 51 85 11 22 30 51 42 65 13 14 30 41 39 60 32 72 39 86 55 110 9 14 20
36 24 50 4 14 20 43 35 65 15 22 31 51 35 65 4 14 20 46 36 72 16 26 32 60 35
75 4 16 20 46 35 69 15 23 33 63 40 90 6 27 22 69 35 94 12 25 29 61 37 80 8
19 26 60 40 90 14 30 28 71 32 90 4 19 17 54 30 77 13 24 31 69 40 100 9 32
25 69 35 83 10 14 28 64 40 111 12 46 28 94 35 105 8 12 24 59 35 105 28 112
55 198 73 234 9 17 23 66 32 110 9 44 28 125 44 180 60 217 114 453 131 585 5
36 16 90 24 120 9 30 16 93 16 140 0 47 7 110 15 140 8 30 15 76 15 103 0 26
9 80 20 119 17 62 20 103 20 283 0 143 4 221 13 245 9 28 14 752 20 3415 7
3163 13 8351 10 8440 -1 22 1 429 3 905 4 602 2 886 -6 935 -23 147 -32 191
-46 219 -8 16 -14 33 -14 38 0 8 -32 82 -63 146 -6 13 -25 36 -41 51 -17 16
-53 49 -80 74 -27 25 -60 51 -75 58 -14 8 -28 16 -31 20 -27 29 -91 61 -170
84 -202 58 -206 59 -278 46 -52 -9 -2141 -11 -9307 -7 -5082 3 -9294 7 -9360
10 -105 4 -131 1 -205 -19z m18130 -1735 l0 -210 -8605 0 -8605 0 0 210 0 210
8605 0 8605 0 0 -210z m0 -7172 c0 -4763 -2 -5442 -15 -5503 -8 -38 -15 -114
-15 -168 0 -67 -6 -120 -20 -169 -12 -45 -20 -103 -20 -153 0 -78 -12 -149
-51 -306 -10 -41 -19 -107 -19 -145 0 -70 -11 -125 -35 -179 -12 -29 -19 -57
-45 -205 -7 -36 -16 -70 -21 -76 -5 -6 -20 -60 -34 -119 -14 -60 -30 -114 -34
-120 -5 -5 -19 -48 -31 -95 -12 -47 -28 -94 -35 -106 -7 -11 -23 -58 -35 -105
-12 -46 -28 -93 -35 -104 -7 -11 -20 -47 -30 -80 -9 -33 -25 -71 -35 -85 -10
-15 -22 -39 -26 -55 -4 -16 -13 -40 -20 -54 -8 -14 -14 -31 -14 -38 0 -6 -16
-42 -35 -80 -19 -37 -35 -76 -35 -85 0 -9 -4 -19 -9 -23 -5 -3 -13 -20 -16
-38 -4 -17 -15 -48 -25 -67 -10 -19 -42 -84 -71 -145 -28 -60 -74 -143 -100
-183 -27 -40 -49 -76 -49 -80 0 -7 -16 -38 -87 -172 -42 -81 -145 -240 -178
-278 -19 -22 -68 -101 -82 -132 -10 -22 -267 -380 -298 -415 -14 -16 -40 -50
-57 -74 -17 -24 -45 -58 -62 -76 -49 -51 -78 -85 -130 -155 -93 -122 -598
-628 -659 -659 -15 -8 -62 -49 -105 -91 -42 -42 -103 -96 -136 -119 -32 -24
-66 -51 -75 -60 -38 -36 -78 -67 -102 -79 -15 -8 -37 -24 -50 -36 -32 -29
-157 -118 -190 -135 -15 -7 -37 -23 -50 -35 -13 -12 -54 -37 -90 -55 -36 -18
-82 -48 -102 -66 -21 -19 -52 -41 -70 -50 -18 -8 -44 -26 -59 -40 -15 -14 -29
-25 -32 -25 -3 0 -43 -24 -88 -53 -46 -29 -101 -61 -123 -71 -22 -9 -49 -22
-60 -28 -11 -7 -47 -26 -80 -43 -33 -18 -78 -44 -99 -58 -21 -15 -43 -27 -47
-27 -5 0 -30 -13 -56 -29 -27 -16 -59 -32 -73 -36 -14 -5 -41 -18 -61 -31 -20
-12 -56 -28 -80 -34 -24 -7 -62 -25 -85 -41 -24 -16 -48 -29 -54 -29 -6 0 -44
-15 -83 -34 -40 -19 -87 -37 -104 -41 -18 -4 -35 -11 -38 -16 -4 -5 -14 -9
-23 -9 -10 0 -33 -8 -52 -18 -19 -10 -71 -29 -115 -42 -44 -12 -89 -29 -100
-36 -11 -7 -58 -22 -104 -34 -46 -11 -93 -27 -105 -34 -11 -8 -57 -22 -101
-31 -44 -9 -98 -25 -120 -35 -22 -10 -78 -25 -125 -35 -46 -9 -104 -25 -128
-36 -24 -11 -81 -24 -126 -29 -44 -5 -128 -23 -185 -40 -80 -23 -123 -30 -190
-30 -56 0 -112 -7 -159 -20 -39 -11 -100 -20 -134 -20 -35 0 -88 -7 -118 -15
-39 -11 -110 -15 -249 -15 -154 0 -206 -4 -255 -17 -57 -17 -163 -18 -1576
-18 -1413 0 -1519 1 -1576 18 -50 13 -102 17 -260 17 -144 0 -214 4 -254 15
-30 8 -80 15 -110 15 -30 0 -77 7 -105 16 -27 9 -106 20 -175 24 -94 6 -145
14 -205 35 -44 15 -119 30 -166 35 -47 4 -106 17 -130 28 -24 11 -71 25 -104
32 -112 22 -150 31 -161 40 -6 5 -48 18 -93 29 -46 11 -93 27 -106 35 -12 8
-60 25 -106 36 -46 12 -93 27 -104 34 -11 7 -54 23 -95 35 -41 12 -88 28 -105
36 -69 32 -125 55 -137 55 -7 1 -31 9 -53 20 -22 11 -48 19 -57 20 -9 0 -19 4
-22 9 -3 5 -18 12 -33 16 -16 3 -49 19 -75 35 -25 16 -64 33 -85 39 -21 6 -55
22 -75 36 -20 14 -41 25 -45 25 -4 0 -33 15 -63 33 -30 18 -70 38 -87 45 -18
6 -48 22 -66 36 -19 15 -38 26 -43 26 -5 0 -32 16 -61 35 -28 19 -64 37 -79
41 -16 4 -51 22 -78 41 -26 19 -63 43 -81 53 -69 39 -80 46 -103 67 -14 11
-36 27 -51 34 -14 7 -47 28 -72 46 -26 18 -50 33 -54 33 -4 0 -29 16 -55 35
-26 19 -52 35 -58 35 -5 0 -51 29 -101 65 -49 36 -95 65 -100 65 -6 0 -14 6
-18 13 -4 7 -46 43 -93 79 -47 37 -99 82 -117 100 -18 19 -45 41 -60 49 -34
17 -65 43 -154 130 -38 36 -81 72 -96 79 -38 19 -570 552 -621 622 -23 31 -62
78 -88 105 -76 80 -137 154 -250 303 -32 41 -60 77 -63 80 -3 3 -12 16 -19 30
-7 14 -31 45 -52 70 -22 25 -40 49 -40 54 0 5 -11 23 -24 41 -24 31 -47 69
-89 147 -11 21 -37 55 -56 76 -20 21 -42 49 -49 61 -8 13 -23 40 -34 59 -11
19 -30 49 -42 66 -12 17 -27 42 -33 56 -7 14 -19 41 -27 60 -9 19 -26 47 -39
61 -12 14 -28 36 -35 48 -40 69 -49 89 -56 115 -4 16 -20 48 -35 70 -15 23
-31 54 -35 70 -4 16 -20 48 -37 72 -16 23 -29 48 -29 54 0 6 -16 44 -35 84
-19 41 -35 80 -35 88 0 13 -9 32 -49 101 -12 21 -31 73 -42 115 -12 42 -28 86
-35 97 -8 11 -14 25 -14 33 0 13 -30 86 -54 132 -7 14 -23 63 -36 109 -12 47
-28 94 -35 105 -7 12 -23 59 -35 106 -12 47 -26 90 -31 96 -5 6 -16 42 -24 80
-9 38 -29 116 -44 174 -16 58 -39 150 -51 205 -12 55 -29 125 -36 156 -8 31
-14 72 -14 90 0 18 -9 67 -19 108 -44 173 -51 214 -51 313 0 66 -6 123 -17
158 -9 32 -19 119 -24 210 -4 85 -12 196 -18 245 -6 59 -10 1934 -10 5463 l-1
5372 8605 0 8605 0 0 -5432z"/>
<path d="M21430 36753 c-30 -8 -59 -18 -65 -22 -5 -5 -23 -11 -40 -15 -34 -8
-157 -100 -224 -167 -64 -64 -81 -89 -139 -195 -30 -54 -45 -100 -77 -226
l-35 -139 0 -1412 c0 -1223 2 -1419 15 -1467 8 -30 22 -89 31 -130 9 -41 27
-98 40 -126 13 -28 24 -54 24 -59 0 -13 96 -139 141 -184 80 -79 218 -171 259
-171 9 0 20 -4 26 -9 22 -22 136 -41 245 -41 94 0 131 5 228 31 106 28 123 36
194 91 101 77 194 172 255 262 39 55 56 95 81 180 l31 109 0 1517 0 1517 -31
109 c-17 59 -38 119 -47 132 -8 13 -23 37 -31 52 -31 55 -88 117 -227 247 -46
43 -90 72 -119 79 -16 4 -34 10 -40 14 -5 5 -38 15 -71 24 -82 21 -345 21
-424 -1z"/>
<path d="M36295 36765 c-5 -2 -50 -15 -100 -30 -72 -22 -112 -43 -200 -104
-151 -104 -146 -98 -261 -321 -7 -14 -23 -70 -36 -125 l-23 -100 -3 -1509 -2
-1509 31 -116 c17 -65 41 -129 54 -147 13 -16 33 -52 46 -80 33 -72 207 -241
292 -282 35 -18 71 -32 79 -32 7 0 23 -6 34 -14 39 -28 140 -46 250 -46 114 0
181 13 261 50 69 32 85 38 113 46 30 8 89 50 109 77 8 11 44 50 81 88 37 37
75 85 84 106 9 21 21 46 27 56 37 67 50 103 70 192 20 91 23 135 29 490 3 215
3 883 -1 1485 -6 909 -9 1109 -22 1180 -21 122 -36 171 -61 205 -12 17 -32 51
-45 77 -13 25 -46 70 -73 100 -27 29 -55 60 -61 69 -24 31 -173 138 -202 145
-16 4 -34 10 -40 14 -31 25 -141 40 -276 39 -79 0 -148 -2 -154 -4z"/>
<path d="M28780 33050 c-8 -5 -75 -10 -148 -10 -114 0 -167 -6 -380 -45 -276
-51 -382 -83 -595 -180 -487 -222 -888 -568 -1162 -1000 -83 -131 -207 -387
-244 -501 -17 -54 -56 -211 -87 -349 -55 -247 -56 -253 -61 -452 -14 -509 80
-936 307 -1398 338 -688 921 -1174 1725 -1438 225 -74 365 -108 470 -113 55
-3 143 -12 195 -21 126 -20 325 -20 415 1 39 8 140 27 225 41 284 47 375 76
611 196 254 129 459 278 665 484 192 191 340 392 477 645 217 402 319 858 319
1425 0 500 -62 795 -247 1180 -283 584 -707 1030 -1220 1280 -302 147 -603
225 -979 255 -161 13 -267 13 -286 0z"/>
<path d="M21440 31013 c-30 -8 -59 -18 -65 -22 -5 -5 -23 -11 -39 -15 -34 -8
-166 -97 -202 -135 -13 -14 -48 -52 -77 -83 -67 -72 -130 -194 -158 -308 -22
-85 -16 -2196 6 -2280 9 -35 15 -103 15 -175 0 -81 6 -142 19 -199 29 -122 42
-193 51 -281 7 -81 18 -128 72 -330 26 -94 55 -155 87 -185 4 -3 13 -18 21
-33 21 -41 171 -188 216 -213 22 -11 48 -26 59 -32 105 -59 188 -75 380 -70
254 7 338 42 514 218 120 120 153 175 190 311 27 99 31 133 31 235 0 73 -6
140 -15 174 -8 30 -15 71 -15 90 0 20 -9 68 -20 108 -11 39 -20 93 -20 119 0
27 -7 73 -15 103 -10 36 -15 103 -15 195 0 109 -4 156 -20 213 -19 69 -20 102
-20 990 l0 919 -31 109 c-17 59 -37 117 -44 129 -7 11 -16 31 -20 45 -29 96
-291 342 -391 366 -16 4 -33 10 -39 14 -50 39 -343 54 -455 23z"/>
<path d="M36220 30983 c-30 -8 -59 -18 -65 -23 -22 -17 -82 -47 -109 -54 -61
-15 -106 -61 -210 -211 -84 -121 -108 -163 -121 -215 -23 -88 -35 -471 -44
-1360 -6 -624 -9 -711 -24 -760 -11 -36 -17 -89 -17 -155 0 -56 -7 -124 -15
-155 -8 -30 -15 -76 -15 -103 0 -26 -9 -80 -20 -119 -11 -40 -20 -95 -20 -123
0 -27 -7 -75 -15 -105 -20 -76 -21 -361 0 -439 20 -80 77 -183 144 -261 51
-59 162 -167 183 -177 222 -107 244 -113 407 -113 116 0 228 17 256 40 6 4 30
13 55 20 50 13 125 65 191 134 171 174 208 230 247 371 17 61 40 141 52 180
11 38 20 92 20 120 0 27 7 75 15 105 8 30 15 76 15 103 0 26 9 80 20 119 15
54 20 103 20 191 0 70 6 142 14 176 21 83 28 2169 7 2251 -19 76 -83 209 -131
269 -61 77 -178 188 -219 207 -20 9 -54 29 -77 45 -67 46 -141 59 -325 58
-111 -1 -182 -6 -219 -16z"/>
<path d="M22765 25525 c-27 -8 -66 -23 -85 -34 -19 -10 -62 -27 -95 -36 -58
-17 -117 -52 -142 -85 -6 -8 -49 -55 -96 -103 -100 -105 -125 -151 -172 -316
-50 -177 -46 -285 13 -413 39 -86 52 -116 52 -123 0 -4 15 -28 33 -54 18 -25
39 -58 46 -72 7 -15 24 -38 37 -52 13 -14 24 -29 24 -33 0 -7 132 -194 152
-216 7 -7 19 -25 26 -39 12 -23 31 -46 111 -134 14 -16 40 -48 56 -70 33 -44
59 -75 123 -142 23 -25 49 -60 58 -79 9 -18 31 -48 51 -66 19 -18 53 -52 76
-76 53 -54 513 -511 537 -533 10 -9 44 -36 76 -60 33 -23 77 -62 99 -84 22
-23 74 -67 115 -98 41 -31 87 -69 102 -85 16 -16 40 -35 55 -43 31 -16 58 -37
116 -91 22 -20 52 -42 66 -50 14 -7 37 -23 50 -35 13 -11 35 -27 50 -35 14 -7
28 -16 31 -19 11 -12 117 -89 124 -89 3 0 44 -24 90 -54 66 -43 110 -62 196
-86 104 -30 118 -32 238 -28 105 4 142 9 212 33 129 43 252 135 375 280 64 75
93 130 110 200 8 36 22 94 30 130 8 35 15 91 15 124 0 84 -53 300 -87 355 -33
52 -97 130 -136 166 -16 14 -60 55 -99 92 -39 36 -82 72 -97 79 -14 8 -38 25
-52 40 -46 46 -98 82 -194 133 -43 23 -172 122 -210 161 -22 23 -69 63 -105
89 -83 61 -407 369 -513 487 -27 30 -75 81 -106 114 -32 33 -75 83 -96 110
-79 106 -109 140 -147 172 -13 10 -29 29 -36 43 -7 14 -29 43 -48 65 -19 22
-42 54 -50 71 -8 17 -33 49 -54 72 -22 23 -40 44 -40 48 0 8 -78 113 -95 129
-6 6 -24 28 -40 50 -42 58 -127 137 -177 164 -127 69 -217 110 -281 127 -65
17 -226 17 -292 -1z"/>
<path d="M34930 25468 c-85 -24 -118 -40 -175 -82 -38 -28 -83 -58 -98 -66
-37 -18 -109 -90 -127 -127 -8 -15 -30 -49 -47 -74 -18 -26 -33 -50 -33 -55 0
-5 -10 -20 -23 -34 -12 -14 -36 -43 -52 -65 -16 -22 -36 -47 -46 -55 -9 -8
-42 -50 -73 -93 -56 -76 -87 -115 -116 -147 -9 -8 -29 -34 -45 -55 -16 -22
-77 -88 -135 -146 -58 -59 -123 -128 -145 -154 -56 -65 -64 -74 -124 -125 -29
-25 -98 -90 -154 -146 -56 -55 -129 -120 -162 -144 -33 -24 -71 -56 -85 -70
-14 -14 -52 -45 -84 -69 -32 -24 -66 -51 -75 -60 -43 -40 -83 -71 -176 -133
-55 -36 -110 -76 -122 -87 -12 -12 -25 -21 -29 -21 -3 0 -27 -15 -53 -33 -25
-18 -59 -39 -75 -47 -37 -19 -147 -129 -166 -166 -8 -16 -29 -49 -46 -74 -18
-25 -36 -59 -39 -75 -4 -17 -13 -40 -21 -51 -30 -50 -44 -141 -44 -299 0 -177
14 -253 59 -319 16 -23 36 -58 45 -78 37 -79 245 -255 322 -274 16 -4 34 -10
39 -14 18 -14 129 -38 205 -44 195 -16 392 30 522 120 43 30 80 54 83 54 7 0
197 133 217 152 7 7 31 26 53 43 21 16 47 37 57 47 10 10 50 39 88 63 39 25
80 57 93 71 12 14 51 49 87 77 35 29 72 59 80 67 32 30 127 109 199 166 41 32
89 74 107 94 36 40 100 104 236 236 78 77 125 126 263 278 6 6 21 25 33 41 21
26 126 145 173 195 9 10 35 43 58 73 22 31 45 58 51 62 5 3 29 34 51 67 23 33
65 85 94 115 29 30 59 67 66 82 7 14 26 45 41 68 15 23 28 44 28 48 0 3 11 18
24 32 13 14 30 37 38 52 7 14 15 28 19 31 28 25 61 90 85 165 27 84 29 101 29
255 0 154 -2 171 -29 255 -45 142 -156 280 -312 388 -74 52 -92 59 -208 87
-174 41 -280 41 -426 -2z"/>
<path d="M27398 22395 c-26 -7 -100 -38 -165 -70 -65 -31 -128 -62 -141 -68
-34 -16 -89 -75 -107 -116 -9 -20 -21 -45 -27 -56 -45 -81 -61 -120 -88 -213
-43 -150 -43 -275 1 -428 38 -132 95 -223 211 -335 96 -93 237 -168 363 -194
44 -9 133 -29 197 -45 92 -24 140 -30 220 -30 59 0 127 -7 158 -15 30 -8 85
-15 123 -15 37 0 100 -9 139 -20 69 -19 103 -20 701 -20 519 0 639 3 686 15
31 8 115 19 186 25 72 5 155 14 185 19 30 5 104 10 163 10 89 1 134 7 245 35
76 19 166 40 202 46 67 12 79 16 165 65 75 41 112 71 198 160 90 91 133 149
143 191 3 16 12 39 20 50 29 47 44 142 44 275 0 156 -11 205 -72 327 -34 69
-61 105 -133 178 -97 98 -145 137 -185 149 -14 4 -43 20 -66 36 -66 45 -141
59 -325 59 -128 0 -179 -4 -238 -19 -171 -44 -214 -51 -303 -51 -57 0 -114 -7
-148 -17 -145 -43 -1246 -43 -1390 0 -38 12 -93 17 -179 17 -108 0 -141 4
-262 35 -133 33 -147 35 -307 34 -103 0 -185 -6 -214 -14z"/>
<path d="M47677 38735 c-4 -5 -59 -12 -121 -16 -205 -14 -562 -108 -776 -204
-544 -245 -979 -641 -1234 -1125 -78 -149 -112 -240 -162 -435 -59 -227 -71
-346 -56 -511 60 -640 432 -1245 987 -1607 260 -169 519 -279 875 -372 140
-36 192 -45 260 -45 47 0 126 -7 175 -15 114 -19 221 -19 321 0 44 8 131 21
194 30 278 37 425 82 685 210 482 238 858 591 1069 1004 63 124 110 257 168
477 l42 159 0 205 c1 224 -12 332 -64 535 -81 313 -259 649 -483 911 -198 231
-437 417 -725 562 -240 122 -429 188 -617 217 -111 17 -526 32 -538 20z"/>
<path d="M60985 38615 c-22 -7 -78 -20 -124 -29 -103 -18 -179 -66 -287 -178
-91 -94 -142 -171 -214 -321 -70 -146 -90 -219 -130 -487 -39 -261 -49 -360
-50 -490 0 -58 -5 -134 -11 -170 -17 -101 -14 -457 5 -572 10 -60 16 -159 16
-258 0 -152 2 -169 45 -367 70 -322 130 -492 216 -620 153 -227 328 -349 539
-377 61 -9 188 15 287 53 91 36 211 111 259 162 83 89 200 300 267 479 42 113
61 209 83 430 9 91 18 169 21 174 10 15 28 403 27 581 0 105 -5 199 -14 245
-10 52 -14 131 -12 254 3 164 0 200 -33 410 -26 169 -47 264 -76 356 -79 245
-218 489 -329 577 -136 108 -378 182 -485 148z"/>
<path d="M64745 38592 c-125 -37 -260 -129 -346 -235 -94 -117 -193 -344 -244
-562 -63 -269 -83 -479 -96 -1020 -11 -430 -7 -634 11 -725 6 -25 14 -104 19
-176 18 -246 106 -507 233 -691 128 -185 366 -332 539 -333 88 0 288 62 391
123 72 42 132 102 191 189 114 171 186 330 217 482 33 158 70 428 70 506 0 41
7 136 16 210 13 111 15 201 11 505 -8 478 -29 696 -93 949 -84 330 -256 605
-447 715 -116 66 -353 97 -472 63z"/>
</g>
</svg>
